<?xml version="1.0" encoding="utf-8"?>
<!-- Generator: Adobe Illustrator 16.0.0, SVG Export Plug-In . SVG Version: 6.00 Build 0)  -->
<!DOCTYPE svg PUBLIC "-//W3C//DTD SVG 1.1//EN" "http://www.w3.org/Graphics/SVG/1.1/DTD/svg11.dtd">
<svg version="1.1" id="Layer_1" xmlns="http://www.w3.org/2000/svg" xmlns:xlink="http://www.w3.org/1999/xlink" x="0px" y="0px"
	 width="612px" height="792px" viewBox="0 0 612 792" enable-background="new 0 0 612 792" xml:space="preserve">
<rect x="107" y="23" fill="#FFFFFF" stroke="#000000" stroke-miterlimit="10" width="425" height="224"/>
<rect x="252" y="261" fill="#FFFFFF" stroke="#000000" stroke-miterlimit="10" width="135" height="121"/>
<rect x="397" y="261" fill="#FFFFFF" stroke="#000000" stroke-miterlimit="10" width="135" height="121"/>
<rect x="107" y="261" fill="#FFFFFF" stroke="#000000" stroke-miterlimit="10" width="135" height="121"/>
<rect x="15" y="23" fill="#FFFFFF" stroke="#000000" stroke-miterlimit="10" width="83" height="112"/>
<rect x="107" y="573" fill="#FFFFFF" stroke="#000000" stroke-miterlimit="10" width="425" height="198"/>
<line fill="none" stroke="#000000" stroke-miterlimit="10" x1="15" y1="59" x2="98" y2="59"/>
<line fill="none" stroke="#000000" stroke-miterlimit="10" x1="98" y1="98" x2="15" y2="98"/>
<text transform="matrix(1 0 0 1 180.5 144)" font-family="'MyriadPro-Regular'" font-size="48">Looping Logo</text>
<text transform="matrix(1 0 0 1 141.2808 313)"><tspan x="0" y="0" font-family="'MyriadPro-Regular'" font-size="11">Tranq’s Twitch</tspan><tspan x="-19.673" y="13.2" font-family="'MyriadPro-Regular'" font-size="11">(with mouseover effect</tspan><tspan x="-22.363" y="26.4" font-family="'MyriadPro-Regular'" font-size="11">from white logo to dark)</tspan></text>
<text transform="matrix(1 0 0 1 271.3042 313)"><tspan x="0" y="0" font-family="'MyriadPro-Regular'" font-size="11">Mikeiceberg’s Twitch</tspan><tspan x="-4.697" y="13.2" font-family="'MyriadPro-Regular'" font-size="11">(with mouseover effect</tspan><tspan x="-7.386" y="26.4" font-family="'MyriadPro-Regular'" font-size="11">from white logo to dark)</tspan></text>
<text transform="matrix(1 0 0 1 420.3105 313)"><tspan x="0" y="0" font-family="'MyriadPro-Regular'" font-size="11">Catsandgun’s Twitch</tspan><tspan x="-5.203" y="13.2" font-family="'MyriadPro-Regular'" font-size="11">(with mouseover effect</tspan><tspan x="-7.893" y="26.4" font-family="'MyriadPro-Regular'" font-size="11">from white logo to dark)</tspan></text>
<text transform="matrix(1 0 0 1 239.4551 677)" font-family="'MyriadPro-Regular'" font-size="18">Why Extinction Video</text>
<text transform="matrix(1 0 0 1 28.2041 47)" font-family="'MyriadPro-Regular'" font-size="18">Forums</text>
<text transform="matrix(1 0 0 1 18.8447 84)" font-family="'MyriadPro-Regular'" font-size="12">Why Extinction</text>
<text transform="matrix(1 0 0 1 35.1641 116)"><tspan x="0" y="0" font-family="'MyriadPro-Regular'" font-size="12">RSI Page</tspan><tspan x="-7.578" y="14.4" font-family="'MyriadPro-Regular'" font-size="12">Application</tspan></text>
<rect x="225.5" y="396" fill="#FFFFFF" stroke="#000000" stroke-miterlimit="10" width="188" height="164"/>
<text transform="matrix(1 0 0 1 256.0601 478)" font-family="'MyriadPro-Regular'" font-size="18">Star Citizen Logo</text>
</svg>
