<?xml version="1.0" encoding="UTF-8" standalone="no"?>
<svg width="155px" height="64px" viewBox="0 0 155 64" version="1.1" xmlns="http://www.w3.org/2000/svg" xmlns:xlink="http://www.w3.org/1999/xlink" xmlns:sketch="http://www.bohemiancoding.com/sketch/ns">
    <!-- Generator: Sketch 3.0.2 (7799) - http://www.bohemiancoding.com/sketch -->
    <title>kaboom-logo-v1</title>
    <description>Created with Sketch.</description>
    <defs></defs>
    <g id="Page-1" stroke="none" stroke-width="1" fill="none" fill-rule="evenodd" sketch:type="MSPage">
        <g id="kaboom-logo-v1" sketch:type="MSArtboardGroup" fill="#FFFFFF">
            <path d="M95.979,40.3857686 L95.409,40.3857686 L94.099,46.6857686 L92.569,40.3857686 L91.899,40.3857686 L90.399,46.6857686 L89.099,40.3857686 L88.489,40.3857686 L89.999,47.2357686 L90.729,47.2357686 L92.229,41.0557686 L93.729,47.2357686 L94.479,47.2357686 L95.979,40.3857686 Z M97.929,42.0057686 L97.349,42.0057686 L97.349,47.2357686 L97.929,47.2357686 L97.929,42.0057686 Z M97.629,39.7057686 C97.369,39.7057686 97.199,39.8957686 97.199,40.1257686 C97.199,40.3557686 97.369,40.5457686 97.629,40.5457686 C97.899,40.5457686 98.069,40.3557686 98.069,40.1257686 C98.069,39.8957686 97.899,39.7057686 97.629,39.7057686 L97.629,39.7057686 Z M100.579,39.8057686 L99.999,39.8757686 L99.999,46.3357686 C99.999,47.0257686 100.339,47.3457686 100.899,47.3457686 C101.119,47.3457686 101.339,47.2857686 101.519,47.2057686 L101.359,46.7757686 C101.249,46.8257686 101.129,46.8457686 101.009,46.8457686 C100.699,46.8457686 100.579,46.6757686 100.579,46.3357686 L100.579,39.8057686 Z M104.369,41.8957686 C103.089,41.8957686 102.319,43.0357686 102.319,44.6457686 C102.319,46.3057686 103.059,47.3457686 104.279,47.3457686 C105.039,47.3457686 105.549,46.9557686 105.849,46.4357686 L105.919,47.2357686 L106.419,47.2357686 L106.419,39.8757686 L105.839,39.8057686 L105.839,42.6057686 C105.539,42.2357686 105.089,41.8957686 104.369,41.8957686 L104.369,41.8957686 Z M105.839,45.8957686 C105.489,46.5057686 105.069,46.8657686 104.369,46.8657686 C103.489,46.8657686 102.939,46.0957686 102.939,44.6357686 C102.929,43.1657686 103.549,42.3757686 104.469,42.3757686 C105.109,42.3757686 105.529,42.7257686 105.839,43.1657686 L105.839,45.8957686 Z M109.819,41.8957686 C108.829,41.8957686 108.079,42.4657686 108.079,43.2557686 C108.079,43.9957686 108.529,44.4057686 109.639,44.6957686 C110.729,44.9957686 111.019,45.2257686 111.019,45.8657686 C111.019,46.4957686 110.489,46.8557686 109.729,46.8557686 C109.089,46.8557686 108.629,46.6557686 108.199,46.2957686 L107.869,46.6757686 C108.319,47.0557686 108.889,47.3457686 109.739,47.3457686 C110.779,47.3457686 111.629,46.7957686 111.629,45.8257686 C111.629,44.9357686 111.089,44.5457686 109.949,44.2457686 C109.009,43.9957686 108.679,43.7757686 108.679,43.2557686 C108.679,42.7157686 109.149,42.3757686 109.839,42.3757686 C110.369,42.3757686 110.759,42.5357686 111.209,42.8657686 L111.489,42.4757686 C110.999,42.0957686 110.489,41.8957686 109.819,41.8957686 L109.819,41.8957686 Z M113.759,40.6857686 L113.179,40.7557686 L113.179,42.0057686 L112.299,42.0057686 L112.299,42.4757686 L113.179,42.4757686 L113.179,45.9657686 C113.179,46.8757686 113.669,47.3457686 114.459,47.3457686 C114.879,47.3457686 115.239,47.2257686 115.559,47.0157686 L115.329,46.6057686 C115.069,46.7657686 114.819,46.8457686 114.529,46.8457686 C113.999,46.8457686 113.759,46.5457686 113.759,45.9357686 L113.759,42.4757686 L115.039,42.4757686 L115.109,42.0057686 L113.759,42.0057686 L113.759,40.6857686 Z M118.129,41.8957686 C117.579,41.8957686 117.059,42.0157686 116.479,42.2457686 L116.629,42.6857686 C117.149,42.4957686 117.629,42.3857686 118.049,42.3857686 C118.919,42.3857686 119.259,42.7557686 119.259,43.5857686 L119.259,44.0857686 L118.259,44.0857686 C116.919,44.0857686 116.089,44.6857686 116.089,45.7857686 C116.089,46.7157686 116.699,47.3457686 117.709,47.3457686 C118.409,47.3457686 118.959,47.0557686 119.339,46.4757686 C119.419,47.0157686 119.689,47.2457686 120.149,47.3457686 L120.279,46.9357686 C119.999,46.8257686 119.839,46.6557686 119.839,46.0757686 L119.839,43.5557686 C119.839,42.4857686 119.319,41.8957686 118.129,41.8957686 L118.129,41.8957686 Z M119.259,44.5157686 L119.259,45.9357686 C118.939,46.5457686 118.479,46.8757686 117.809,46.8757686 C117.119,46.8757686 116.709,46.4757686 116.709,45.7557686 C116.709,44.9257686 117.299,44.5157686 118.349,44.5157686 L119.259,44.5157686 Z M122.449,42.0057686 L121.949,42.0057686 L121.949,47.2357686 L122.529,47.2357686 L122.529,44.0557686 C122.799,42.9757686 123.199,42.4457686 123.929,42.4457686 C124.109,42.4457686 124.239,42.4657686 124.389,42.5057686 L124.499,41.9557686 C124.359,41.9157686 124.179,41.8957686 123.979,41.8957686 C123.249,41.8957686 122.779,42.3157686 122.499,43.1757686 L122.449,42.0057686 Z M130.909,40.2757686 C129.479,40.2757686 128.069,41.4357686 128.069,43.7857686 C128.069,46.1557686 129.199,47.3457686 130.869,47.3457686 C131.649,47.3457686 132.329,47.1357686 132.929,46.7857686 L132.929,43.5457686 L130.929,43.5457686 L130.999,44.0457686 L132.339,44.0457686 L132.339,46.4757686 C131.909,46.7157686 131.459,46.8357686 130.899,46.8357686 C129.549,46.8357686 128.699,45.8857686 128.699,43.7857686 C128.699,41.6157686 129.839,40.7857686 130.919,40.7857686 C131.539,40.7857686 131.969,40.9557686 132.449,41.3257686 L132.809,40.9557686 C132.249,40.5057686 131.729,40.2757686 130.909,40.2757686 L130.909,40.2757686 Z M137.739,45.7957686 C137.379,46.4157686 136.899,46.8657686 136.209,46.8657686 C135.529,46.8657686 135.179,46.5157686 135.179,45.6857686 L135.179,42.0057686 L134.599,42.0057686 L134.599,45.7457686 C134.599,46.7757686 135.139,47.3457686 136.079,47.3457686 C136.889,47.3457686 137.419,46.9357686 137.789,46.3157686 L137.819,47.2357686 L138.319,47.2357686 L138.319,42.0057686 L137.739,42.0057686 L137.739,45.7957686 Z M141.019,42.0057686 L140.439,42.0057686 L140.439,47.2357686 L141.019,47.2357686 L141.019,42.0057686 Z M140.719,39.7057686 C140.459,39.7057686 140.289,39.8957686 140.289,40.1257686 C140.289,40.3557686 140.459,40.5457686 140.719,40.5457686 C140.989,40.5457686 141.159,40.3557686 141.159,40.1257686 C141.159,39.8957686 140.989,39.7057686 140.719,39.7057686 L140.719,39.7057686 Z M143.669,39.8057686 L143.089,39.8757686 L143.089,46.3357686 C143.089,47.0257686 143.429,47.3457686 143.989,47.3457686 C144.209,47.3457686 144.429,47.2857686 144.609,47.2057686 L144.449,46.7757686 C144.339,46.8257686 144.219,46.8457686 144.099,46.8457686 C143.789,46.8457686 143.669,46.6757686 143.669,46.3357686 L143.669,39.8057686 Z M147.459,41.8957686 C146.179,41.8957686 145.409,43.0357686 145.409,44.6457686 C145.409,46.3057686 146.149,47.3457686 147.369,47.3457686 C148.129,47.3457686 148.639,46.9557686 148.939,46.4357686 L149.009,47.2357686 L149.509,47.2357686 L149.509,39.8757686 L148.929,39.8057686 L148.929,42.6057686 C148.629,42.2357686 148.179,41.8957686 147.459,41.8957686 L147.459,41.8957686 Z M148.929,45.8957686 C148.579,46.5057686 148.159,46.8657686 147.459,46.8657686 C146.579,46.8657686 146.029,46.0957686 146.029,44.6357686 C146.019,43.1657686 146.639,42.3757686 147.559,42.3757686 C148.199,42.3757686 148.619,42.7257686 148.929,43.1657686 L148.929,45.8957686 Z" id="Wildstar-Guild" sketch:type="MSShapeGroup"></path>
            <path d="M74.9517104,17.4244246 L69.2877104,17.4244246 L64.9917104,25.2484246 L69.1197104,34.1764246 L75.3597104,34.1764246 L70.5597104,24.8164246 L74.9517104,17.4244246 Z M64.8477104,17.4244246 L59.3037104,17.4244246 L59.3037104,34.1764246 L64.8477104,34.1764246 L64.8477104,17.4244246 Z M80.9989104,20.8084246 C79.5109104,20.8084246 77.3989104,21.1684246 75.7669104,21.8404246 L76.9189104,25.1764246 C78.1909104,24.7444246 79.5109104,24.5044246 80.2069104,24.5044246 C81.5509104,24.5044246 81.8629104,24.7684246 81.8629104,25.9444246 L81.8629104,26.1124246 L81.1909104,26.1124246 C77.0389104,26.1124246 74.8549104,27.6964246 74.8549104,30.5524246 C74.8549104,32.9524246 76.5589104,34.7044246 79.1269104,34.7044246 C80.5909104,34.7044246 82.0549104,34.2724246 83.0149104,32.8324246 C83.8069104,34.0564246 84.9589104,34.4884246 86.6869104,34.5844246 L87.7669104,31.2004246 C87.1909104,30.9844246 87.0469104,30.6244246 87.0469104,29.7604246 L87.0469104,25.6564246 C87.0469104,22.3684246 85.3189104,20.8084246 80.9989104,20.8084246 Z M81.8629104,28.8244246 L81.8629104,30.4564246 C81.6469104,30.7444246 81.2389104,30.9844246 80.8069104,30.9844246 C80.3509104,30.9844246 80.0149104,30.5764246 80.0149104,30.0244246 C80.0149104,29.1844246 80.5189104,28.8244246 81.6229104,28.8244246 L81.8629104,28.8244246 Z M93.9821104,15.7684246 L88.6541104,16.2964246 L88.6541104,34.1764246 L93.4061104,34.1764246 L93.5501104,33.1204246 C94.2701104,34.1044246 95.4221104,34.7044246 96.8621104,34.7044246 C100.12611,34.7044246 102.02211,31.6804246 102.02211,27.7924246 C102.02211,23.4724246 100.55811,20.8084246 97.1501104,20.8084246 C96.0221104,20.8084246 94.6301104,21.4324246 93.9821104,22.3444246 L93.9821104,15.7684246 Z M93.9821104,25.5844246 C94.4381104,24.7924246 94.9421104,24.5764246 95.3981104,24.5764246 C96.0221104,24.5764246 96.5981104,24.9124246 96.5981104,27.7924246 C96.5981104,30.2884246 96.0221104,30.9364246 95.2541104,30.9364246 C94.7021104,30.9364246 94.2941104,30.7204246 93.9581104,30.1684246 L93.9821104,30.0724246 L93.9821104,25.5844246 Z M109.34131,20.8084246 C105.14131,20.8084246 102.52531,23.4724246 102.52531,27.7204246 C102.52531,32.2804246 105.21331,34.7044246 109.34131,34.7044246 C113.54131,34.7044246 116.15731,32.0164246 116.15731,27.7924246 C116.15731,23.2084246 113.46931,20.8084246 109.34131,20.8084246 Z M109.34131,24.5764246 C110.32531,24.5764246 110.73331,25.4164246 110.73331,27.7924246 C110.73331,30.0004246 110.32531,30.9124246 109.34131,30.9124246 C108.35731,30.9124246 107.94931,30.0964246 107.94931,27.7204246 C107.94931,25.4884246 108.33331,24.5764246 109.34131,24.5764246 Z M123.35651,20.8084246 C119.15651,20.8084246 116.54051,23.4724246 116.54051,27.7204246 C116.54051,32.2804246 119.22851,34.7044246 123.35651,34.7044246 C127.55651,34.7044246 130.17251,32.0164246 130.17251,27.7924246 C130.17251,23.2084246 127.48451,20.8084246 123.35651,20.8084246 Z M123.35651,24.5764246 C124.34051,24.5764246 124.74851,25.4164246 124.74851,27.7924246 C124.74851,30.0004246 124.34051,30.9124246 123.35651,30.9124246 C122.37251,30.9124246 121.96451,30.0964246 121.96451,27.7204246 C121.96451,25.4884246 122.34851,24.5764246 123.35651,24.5764246 Z M135.73971,21.3124246 L131.08371,21.3124246 L131.08371,34.1764246 L136.41171,34.1764246 L136.41171,25.7044246 C136.69971,24.9364246 137.10771,24.6484246 137.34771,24.6484246 C137.58771,24.6484246 137.75571,24.8164246 137.75571,25.6324246 L137.75571,34.1764246 L143.08371,34.1764246 L143.08371,25.7044246 C143.34771,24.9364246 143.77971,24.6484246 144.01971,24.6484246 C144.23571,24.6484246 144.40371,24.8164246 144.40371,25.6324246 L144.40371,34.1764246 L149.73171,34.1764246 L149.73171,24.6244246 C149.73171,22.1764246 148.41171,20.8084246 146.51571,20.8084246 C144.95571,20.8084246 143.77971,21.2644246 142.67571,22.5604246 C142.14771,21.4084246 141.11571,20.8084246 139.84371,20.8084246 C138.35571,20.8084246 137.20371,21.2644246 136.09971,22.4884246 L135.73971,21.3124246 Z" id="Kaboom" sketch:type="MSShapeGroup"></path>
            <g id="Explosion-Icon" sketch:type="MSLayerGroup" transform="translate(0.000000, 6.000000)">
                <path d="M29.528,50.382 L8.267,50.382 C6.294,50.382 4.322,50.376 2.349,50.385 C1.605,50.389 1.038,50.088 0.668,49.453 C0.296,48.816 0.382,48.185 0.749,47.565 C1.862,45.684 2.969,43.799 4.079,41.916 C6.6,37.636 9.123,33.357 11.644,29.077 C13.938,25.184 16.231,21.291 18.523,17.396 C21.247,12.771 23.969,8.145 26.692,3.52 C27.109,2.812 27.521,2.101 27.946,1.397 C28.35,0.729 28.955,0.417 29.73,0.486 C30.461,0.552 30.938,0.964 31.279,1.614 C31.659,2.339 32.119,3.021 32.534,3.727 C35.208,8.27 37.877,12.815 40.553,17.358 C42.635,20.894 44.726,24.425 46.81,27.96 C49.186,31.991 51.558,36.024 53.934,40.056 C54.242,40.579 54.547,41.106 54.886,41.61 C55.09,41.914 55.204,42.261 55.407,42.564 C55.644,42.921 55.845,43.301 56.063,43.67 C56.275,44.03 56.488,44.39 56.7,44.75 C56.912,45.109 57.124,45.47 57.336,45.829 C57.668,46.393 57.99,46.962 58.334,47.518 C58.729,48.155 58.794,48.805 58.425,49.464 C58.054,50.129 57.452,50.385 56.706,50.384 C49.92,50.38 43.133,50.382 36.347,50.382 L29.528,50.382 L29.528,50.382 Z M32.012,15.29 C31.965,15.317 31.893,15.333 31.875,15.374 C31.707,15.766 31.548,16.162 31.387,16.557 C31.596,16.258 31.795,15.958 31.966,15.642 C32.019,15.544 31.994,15.403 32.005,15.282 C32.077,15.227 32.175,15.186 32.218,15.113 C32.51,14.618 32.774,14.105 33.08,13.618 C33.247,13.351 33.247,13.133 33.012,12.873 C32.67,13.659 32.334,14.428 32.002,15.198 C31.992,15.222 32.008,15.259 32.012,15.29 L32.012,15.29 Z M22.953,35.737 L22.963,35.747 C22.887,35.691 22.798,35.647 22.734,35.579 C22.475,35.302 22.282,35.449 22.101,35.671 C21.958,35.845 21.827,36.027 21.685,36.202 C21.528,36.395 21.366,36.581 21.207,36.771 C21.165,36.671 21.18,36.612 21.204,36.558 C22.504,33.62 23.803,30.683 25.105,27.747 C25.526,26.797 25.96,25.854 26.38,24.904 C27.749,21.812 29.112,18.718 30.478,15.625 C31.066,14.294 31.651,12.961 32.252,11.637 C32.362,11.393 32.345,11.208 32.214,10.982 C31.633,9.981 31.068,8.971 30.497,7.965 C30.153,7.361 29.808,6.759 29.449,6.131 C29.388,6.219 29.342,6.276 29.305,6.339 C27.701,9.063 26.096,11.785 24.5,14.514 C24.386,14.708 24.321,14.937 24.271,15.16 C24.188,15.532 24.144,15.914 24.067,16.289 C23.696,18.114 23.319,19.938 22.947,21.763 C22.053,26.148 21.161,30.535 20.268,34.92 C20.181,35.345 20.087,35.767 20,36.172 C19.573,36.093 19.198,35.981 18.819,35.965 C18.516,35.952 18.398,35.859 18.333,35.565 C17.934,33.745 17.515,31.93 17.102,30.113 C16.977,29.566 16.848,29.021 16.704,28.398 C16.349,29.002 16.042,29.539 15.721,30.066 C15.61,30.248 15.597,30.395 15.699,30.595 C16.301,31.778 16.888,32.97 17.478,34.159 C17.715,34.637 17.951,35.115 18.186,35.593 C17.591,35.883 17.291,35.764 16.995,35.148 C16.762,34.665 16.659,34.63 16.18,34.867 C15.815,35.049 15.705,35.015 15.483,34.652 C15.416,34.543 15.35,34.434 15.283,34.323 C14.984,33.83 15.029,33.648 15.527,33.341 C15.58,33.308 15.635,33.28 15.748,33.218 C15.452,32.706 15.161,32.205 14.836,31.643 C11.999,36.702 9.201,41.69 6.378,46.723 C13.979,46.797 21.516,46.871 29.146,46.945 C26.617,45.445 24.174,43.997 21.731,42.549 C21.738,42.513 21.746,42.476 21.753,42.44 C22.243,42.372 22.755,42.336 22.797,41.673 C22.967,41.705 23.113,41.731 23.258,41.761 C26.871,42.479 30.483,43.197 34.096,43.914 C38.497,44.786 42.899,45.656 47.301,46.525 C48.036,46.671 48.769,46.888 49.51,46.92 C50.653,46.97 51.802,46.889 52.949,46.862 C52.977,46.861 53.003,46.841 53.04,46.826 C53.024,46.777 53.017,46.736 52.998,46.7 C52.437,45.627 51.88,44.552 51.306,43.486 C51.254,43.39 51.102,43.306 50.986,43.29 C48.473,42.937 45.958,42.593 43.444,42.248 C41.407,41.969 39.37,41.69 37.332,41.413 C36.305,41.272 35.276,41.141 34.25,40.995 C33.216,40.849 32.185,40.682 31.151,40.539 C30.547,40.456 29.938,40.416 29.334,40.335 C28.434,40.215 27.536,40.073 26.636,39.945 C25.823,39.829 25.009,39.72 24.195,39.607 C24.197,39.58 24.2,39.553 24.202,39.525 C32.129,39.914 40.057,40.303 48,40.692 C48.012,40.535 48.021,40.403 48.036,40.217 C48.072,40.703 48.097,40.731 48.555,40.753 C48.816,40.765 49.079,40.755 49.363,40.755 C49.209,40.402 49.048,40.068 48.918,39.722 C48.838,39.507 48.718,39.443 48.491,39.437 C45.33,39.362 42.169,39.272 39.008,39.191 C35.9,39.112 32.792,39.04 29.684,38.963 C29.36,38.954 29.037,38.928 28.713,38.91 C28.714,38.891 28.715,38.871 28.716,38.852 C35.056,38.547 41.396,38.242 47.79,37.935 C47.29,37.021 46.827,36.165 46.348,35.318 C46.313,35.257 46.167,35.22 46.081,35.231 C44.081,35.475 42.083,35.726 40.085,35.979 C37.961,36.248 35.838,36.523 33.713,36.792 C31.408,37.085 29.102,37.375 26.796,37.667 C26.227,37.738 25.657,37.81 25.087,37.882 C25.083,37.856 25.078,37.831 25.074,37.806 C31.753,36.27 38.433,34.733 45.149,33.189 C44.364,31.77 43.605,30.396 42.838,29.011 C37.578,31.433 32.356,33.838 27.134,36.242 C27.123,36.22 27.111,36.197 27.1,36.175 C31.99,33.198 36.879,30.221 41.79,27.232 C41.274,26.399 40.787,25.611 40.284,24.797 C34.47,29.109 28.687,33.399 22.904,37.688 C22.914,37.572 22.965,37.507 23.023,37.448 C26.414,34.103 29.805,30.758 33.197,27.413 C34.953,25.682 36.708,23.949 38.47,22.225 C38.645,22.053 38.679,21.928 38.543,21.71 C38.243,21.228 37.978,20.725 37.694,20.233 C37.611,20.089 37.513,19.954 37.408,19.795 C33.7,23.776 30.014,27.736 26.327,31.695 C26.317,31.571 26.362,31.492 26.418,31.422 C27.342,30.271 28.271,29.125 29.192,27.971 C29.766,27.251 30.322,26.517 30.894,25.796 C32.781,23.42 34.667,21.045 36.565,18.679 C36.743,18.457 36.73,18.303 36.586,18.091 C36.37,17.772 36.181,17.435 35.97,17.111 C35.67,16.649 35.35,16.2 35.06,15.732 C34.885,15.449 34.751,15.139 34.564,14.774 C33.378,16.737 32.243,18.615 31.136,20.448 C31.369,20.378 31.621,20.238 31.871,20.241 C32.363,20.248 32.804,20.229 33.111,19.758 C33.167,19.671 33.485,19.627 33.513,19.671 C33.689,19.944 33.956,20.26 33.932,20.54 C33.881,21.151 33.496,21.652 33.094,22.113 C33.069,22.142 33.015,22.144 32.978,22.166 C32.798,22.272 32.571,22.342 32.451,22.496 C32.198,22.816 31.91,22.833 31.567,22.72 C31.445,22.68 31.324,22.632 31.198,22.611 C30.811,22.547 30.703,22.282 30.697,21.94 C30.694,21.744 30.697,21.547 30.697,21.351 C30.667,21.347 30.638,21.342 30.609,21.338 C30.552,21.423 30.492,21.507 30.438,21.595 C28.824,24.247 27.212,26.9 25.595,29.55 C24.863,30.749 24.123,31.941 23.38,33.133 C23.236,33.364 23.148,33.607 23.393,33.792 C23.702,34.025 23.773,34.33 23.771,34.679 C24.241,34.725 24.291,34.688 24.398,34.255 C24.424,34.152 24.454,34.045 24.508,33.955 C24.657,33.712 24.859,33.702 25.059,33.908 C25.304,34.161 25.082,34.306 24.935,34.467 C24.606,34.829 24.244,35.166 23.957,35.56 C23.72,35.884 23.654,35.956 23.259,35.833 C23.157,35.801 23.055,35.77 22.953,35.737 L22.953,35.737 Z M35.213,46.962 C34.979,46.862 34.805,46.784 34.627,46.714 C33.895,46.421 33.159,46.137 32.534,45.637 C32.417,45.543 32.283,45.466 32.185,45.355 C32.02,45.166 32.072,44.961 32.305,44.869 C32.421,44.823 32.561,44.781 32.678,44.802 C33.22,44.898 33.76,45.005 34.294,45.133 C34.574,45.199 34.843,45.312 35.114,45.41 C35.716,45.629 36.319,45.848 36.919,46.073 C37.338,46.231 37.741,46.443 38.171,46.558 C39.544,46.921 40.947,46.688 42.343,46.685 C36.509,45.276 30.676,43.868 24.744,42.436 C25.035,42.796 25.159,43.086 24.774,43.37 C25.506,43.67 26.173,43.96 26.855,44.21 C26.991,44.26 27.209,44.196 27.343,44.11 C27.582,43.957 28.086,43.906 28.315,44.068 C28.516,44.211 28.509,44.367 28.295,44.485 C28.208,44.533 28.121,44.581 27.977,44.659 C30.263,45.905 32.475,47.144 35.213,46.962 L35.213,46.962 Z M17.484,26.785 C17.454,27.082 17.383,27.318 17.416,27.539 C17.656,29.138 17.919,30.733 18.168,32.331 C18.312,33.259 18.306,33.26 19.255,33.308 C19.276,33.309 19.298,33.31 19.319,33.311 C19.89,33.344 19.902,33.345 19.971,32.774 C20.051,32.108 20.107,31.439 20.176,30.753 C20.059,30.745 19.986,30.741 19.914,30.734 C18.952,30.638 18.554,30.032 18.564,29.18 C18.566,28.987 18.705,28.73 18.862,28.621 C19.082,28.467 19.149,28.294 19.157,28.062 C19.165,27.805 19.144,27.544 19.185,27.292 C19.203,27.177 19.382,26.979 19.417,26.993 C19.84,27.166 20.172,26.831 20.569,26.859 C20.792,24.669 21.012,22.519 21.231,20.37 C21.104,20.502 21.052,20.661 20.952,20.782 C20.505,21.324 20.458,21.909 20.724,22.54 C20.736,22.568 20.746,22.605 20.739,22.634 C20.701,22.795 20.704,22.995 20.607,23.107 C20.417,23.327 20.319,23.549 20.282,23.842 C20.203,24.462 19.964,24.583 19.426,24.294 C19.142,24.141 19.013,24.221 18.889,24.489 C18.706,24.886 18.514,25.283 18.28,25.651 C18.145,25.862 18.126,26.041 18.225,26.248 C18.312,26.431 18.45,26.601 18.491,26.792 C18.522,26.934 18.475,27.134 18.385,27.245 C18.332,27.31 18.104,27.292 17.995,27.234 C17.84,27.153 17.722,27.001 17.484,26.785 L17.484,26.785 Z M40.499,29.113 C41.148,29.145 41.559,28.804 42.037,28.54 C41.933,28.39 41.856,28.281 41.767,28.153 C41.353,28.476 40.788,28.535 40.499,29.113 L40.499,29.113 Z" id="Fill-1" sketch:type="MSShapeGroup"></path>
                <path d="M19.587,41.225 C19.692,41.398 19.754,41.54 19.852,41.649 C19.921,41.728 20.034,41.793 20.136,41.811 C20.281,41.836 20.435,41.807 20.585,41.81 C20.849,41.815 21.039,41.924 21.093,42.204 C21.097,42.225 21.099,42.246 21.105,42.267 C21.342,43.021 21.339,43.017 20.646,43.432 C19.932,43.859 19.188,44.188 18.348,44.29 C16.876,44.469 15.154,43.618 14.562,42.261 C13.763,40.43 14.015,38.503 15.82,37.041 C16.066,36.842 16.366,36.701 16.658,36.571 C17.019,36.412 17.32,36.541 17.469,36.9 C17.579,37.166 17.666,37.442 17.752,37.718 C17.849,38.025 17.77,38.262 17.457,38.402 C17.255,38.494 17.054,38.606 17.178,38.885 C17.29,39.14 17.512,39.115 17.729,39.067 C17.865,39.037 17.995,38.966 18.13,38.956 C18.262,38.947 18.418,38.956 18.527,39.02 C18.86,39.215 19.168,39.454 19.502,39.649 C19.653,39.737 19.839,39.787 20.014,39.808 C20.378,39.852 20.471,39.993 20.271,40.304 C20.11,40.553 19.908,40.774 19.728,41.011 C19.666,41.093 19.614,41.183 19.587,41.225" id="Fill-2" sketch:type="MSShapeGroup"></path>
                <path d="M28.158,18.882 C27.968,19.304 27.836,19.766 27.576,20.137 C27.185,20.696 26.718,21.205 26.256,21.71 C25.844,22.162 25.135,21.986 24.937,21.396 C24.867,21.185 24.83,20.959 24.804,20.737 C24.774,20.487 24.867,20.312 25.097,20.152 C25.302,20.011 25.442,19.762 25.579,19.541 C25.753,19.26 25.874,18.945 26.058,18.671 C26.296,18.317 26.537,18.275 26.91,18.492 C27.109,18.607 27.272,18.645 27.501,18.522 C27.812,18.354 28.093,18.537 28.081,18.849 C28.106,18.86 28.132,18.871 28.158,18.882" id="Fill-3" sketch:type="MSShapeGroup"></path>
                <path d="M21.802,40.63 C21.522,40.661 21.241,40.724 20.963,40.711 C20.804,40.703 20.623,40.6 20.507,40.484 C20.454,40.431 20.502,40.227 20.56,40.121 C20.778,39.724 21.005,39.329 21.259,38.953 C21.338,38.837 21.509,38.719 21.641,38.715 C22.077,38.7 22.517,38.717 22.95,38.764 C23.27,38.798 23.302,38.899 23.153,39.196 C23.115,39.273 23.077,39.354 23.02,39.415 C22.82,39.637 22.684,39.817 23.063,40.025 C23.252,40.128 23.135,40.519 22.88,40.581 C22.533,40.666 22.17,40.686 21.814,40.732 C21.81,40.698 21.806,40.664 21.802,40.63" id="Fill-4" sketch:type="MSShapeGroup"></path>
                <path d="M32.07,41.779 C32.122,41.536 32.373,41.54 32.59,41.534 C33.049,41.523 33.525,41.468 33.965,41.565 C34.529,41.691 35.068,41.938 35.608,42.157 C35.872,42.265 35.838,42.52 35.79,42.744 C35.74,42.976 35.559,42.991 35.362,42.973 C34.414,42.883 33.465,42.801 32.519,42.7 C32.438,42.692 32.335,42.588 32.301,42.504 C32.212,42.29 32.157,42.063 32.07,41.779" id="Fill-5" sketch:type="MSShapeGroup"></path>
                <path d="M36.702,33.839 C36.708,34.353 36.008,34.866 35.476,34.769 C35.201,34.719 34.913,34.74 34.631,34.731 C34.588,34.729 34.546,34.736 34.503,34.74 C34.198,34.769 33.946,34.688 33.829,34.378 C33.741,34.145 33.907,33.813 34.16,33.636 C34.561,33.353 34.989,33.137 35.456,32.977 C36.2,32.722 36.692,33.048 36.702,33.839" id="Fill-6" sketch:type="MSShapeGroup"></path>
                <path d="M19.666,38.807 C19.566,38.722 19.47,38.665 19.41,38.583 C19.237,38.345 19.06,38.164 18.719,38.247 C18.52,38.297 18.305,38.276 18.218,38.023 C18.133,37.775 18.309,37.688 18.456,37.535 C18.889,37.08 19.425,37.195 19.923,37.246 C20.242,37.278 20.556,37.463 20.844,37.629 C20.925,37.676 20.978,37.943 20.922,38.029 C20.636,38.47 20.115,38.538 19.666,38.807" id="Fill-7" sketch:type="MSShapeGroup"></path>
                <path d="M23.226,29.465 C23.062,29.38 22.816,29.335 22.75,29.202 C22.604,28.905 22.352,28.569 22.668,28.231 C22.943,27.937 23.124,27.488 23.658,27.576 C23.873,27.611 23.971,27.689 23.922,27.939 C23.847,28.326 23.694,28.69 23.781,29.122 C23.846,29.442 23.495,29.406 23.226,29.465" id="Fill-8" sketch:type="MSShapeGroup"></path>
                <path d="M26.715,28.814 C26.776,28.355 27.198,27.818 27.591,27.712 C27.89,27.631 27.985,27.836 28.092,28.041 C28.201,28.248 28.222,28.432 27.982,28.555 C27.753,28.672 27.554,28.794 27.449,29.062 C27.414,29.153 27.151,29.247 27.055,29.203 C26.912,29.137 26.825,28.95 26.715,28.814" id="Fill-9" sketch:type="MSShapeGroup"></path>
                <path d="M22.983,44.756 C22.869,44.727 22.783,44.719 22.709,44.685 C22.414,44.548 22.115,44.416 21.833,44.256 C21.728,44.197 21.665,44.067 21.582,43.97 C21.681,43.888 21.793,43.723 21.876,43.736 C22.261,43.799 22.639,43.903 23.015,44.01 C23.099,44.033 23.2,44.112 23.229,44.19 C23.278,44.321 23.317,44.484 23.279,44.607 C23.255,44.684 23.079,44.712 22.983,44.756" id="Fill-10" sketch:type="MSShapeGroup"></path>
                <path d="M27.204,37.003 C26.976,37.323 26.699,37.366 26.359,37.214 C26.096,37.097 25.818,37.013 25.55,36.906 C25.311,36.811 25.324,36.653 25.509,36.53 C25.634,36.447 25.826,36.355 25.947,36.395 C26.347,36.524 26.73,36.711 27.116,36.882 C27.156,36.9 27.177,36.964 27.204,37.003" id="Fill-11" sketch:type="MSShapeGroup"></path>
                <path d="M30.841,42.73 C30.474,42.676 30.106,42.633 29.744,42.566 C29.456,42.513 29.488,42.265 29.541,42.083 C29.562,42.011 29.773,41.978 29.902,41.957 C30.032,41.936 30.168,41.952 30.322,41.952 C30.372,41.985 30.47,42.069 30.583,42.121 C30.814,42.229 31.01,42.342 30.841,42.73" id="Fill-12" sketch:type="MSShapeGroup"></path>
                <path d="M26.355,40.604 C26.778,40.59 27.196,40.84 27.317,41.171 C27.344,41.245 27.333,41.383 27.284,41.425 C27.207,41.488 27.048,41.552 26.985,41.514 C26.761,41.381 26.539,41.226 26.367,41.033 C26.296,40.955 26.355,40.761 26.355,40.604" id="Fill-13" sketch:type="MSShapeGroup"></path>
                <path d="M22.33,31.122 C22.301,31.094 22.136,31.007 22.121,30.9 C22.078,30.587 22.317,30.243 22.521,30.247 C22.792,30.252 22.981,30.419 22.983,30.658 C22.987,31.007 22.859,31.121 22.33,31.122" id="Fill-14" sketch:type="MSShapeGroup"></path>
                <path d="M15.515,37.004 C15.324,36.776 15.197,36.623 15.069,36.471 C15.285,36.355 15.495,36.224 15.722,36.14 C15.759,36.126 15.959,36.361 15.935,36.412 C15.848,36.6 15.697,36.759 15.515,37.004" id="Fill-15" sketch:type="MSShapeGroup"></path>
                <path d="M22.953,35.737 C23.134,35.909 23.178,36.09 22.99,36.285 C22.84,36.44 22.481,36.449 22.322,36.282 C22.282,36.24 22.289,36.072 22.325,36.052 C22.53,35.936 22.749,35.847 22.964,35.747 L22.953,35.737" id="Fill-16" sketch:type="MSShapeGroup"></path>
                <path d="M16.717,36.224 C16.336,36.233 16.206,36.074 16.227,35.813 C16.233,35.741 16.355,35.633 16.432,35.625 C16.67,35.6 16.908,35.818 16.866,36.021 C16.847,36.115 16.741,36.192 16.717,36.224" id="Fill-17" sketch:type="MSShapeGroup"></path>
            </g>
        </g>
    </g>
</svg>